<?xml version="1.0" encoding="UTF-8"?>
<svg width="48px" height="48px" viewBox="0 0 48 48" version="1.1" xmlns="http://www.w3.org/2000/svg" xmlns:xlink="http://www.w3.org/1999/xlink">
    <!-- Generator: Sketch 49 (51002) - http://www.bohemiancoding.com/sketch -->
    <title>checking</title>
    <desc>Created with Sketch.</desc>
    <defs></defs>
    <g id="Page-1" stroke="none" stroke-width="1" fill="none" fill-rule="evenodd">
        <g id="10" transform="translate(-205.000000, -889.000000)" fill="#B3B7BA">
            <g id="Group-3" transform="translate(205.000000, 883.000000)">
                <path d="M0.00622844137,28.3692681 C0.00622844137,21.5879723 0,19.042814 0,12.2611561 C0,6.38299028 3.26355843,6 6.40131683,6 L32.0065117,6 C36.9386407,6 38.4638121,7.67823458 38.4638121,12.4003331 L38.4638121,15.600391 C38.4638121,18.1237531 35.253123,17.834682 35.253123,15.600391 L35.253123,12.4003331 C35.253123,10.0299788 34.4818826,9.20005793 32.0065117,9.20005793 L6.40131683,9.20005793 C3.75075291,9.20005793 3.20047736,9.55958652 3.20047736,12.4003331 L3.20047736,44.4010572 C3.20047736,46.1551078 4.16067126,47.6013324 6.40131683,47.6013324 C10.2833016,47.6013324 8.92057652,47.6027806 12.8025612,47.6013324 C14.7591609,47.6013324 14.9028496,50.8013903 12.8025612,50.8013903 C10.7020556,50.8013903 9.11126822,50.8268071 5.19473738,50.8112384 C2.88507198,50.8019696 0.972071397,49.4340231 0.290564032,47.3168233 C0.0998723332,46.7244881 0.0186853241,46.0699506 0.0186853241,45.4434367 C0,38.6852405 0.00622844137,35.1274643 0.00622844137,28.3692681 Z M31.9750798,54 C23.1484369,53.9982621 16.003111,46.8433172 16.003111,38.0041275 C16.003111,29.1647206 23.1826933,22.0003621 32.0251246,22.012817 C40.8673387,22.025272 48.0095503,29.1975235 47.9999904,38.0524991 C47.9909374,46.8715581 40.8269262,54.0013758 31.9750798,54 Z M32.0186789,25.2162059 C25.0017603,25.2007096 19.2350203,30.9413639 19.2194492,37.9634316 C19.2038781,45.0043991 24.9174591,50.7623599 31.9405337,50.7827079 C38.9919984,50.8013903 44.7743096,45.0934666 44.790098,38.0932674 C44.8087833,30.991401 39.0983165,25.2332229 32.0186789,25.2162059 Z M28.8056723,15.5788845 C31.3563639,15.58055 31.0061227,18.8218831 28.8056723,18.8218831 L9.60179419,18.8218831 C7.20167155,18.8218831 7.30147146,15.5788845 9.60179419,15.5788845 C15.9032387,15.5774362 26.3551427,15.5774362 28.8056723,15.5788845 Z M32.0472139,35.4147975 C32.0506178,35.5681674 32.1357881,35.7556437 32.2359501,35.8648419 C33.0235583,36.7134452 36.8625233,40.7368345 37.6473069,41.5868861 C38.4536004,42.4589511 38.1316769,43.8573834 37.0501008,44.2183602 C36.5001149,44.4010572 35.9809816,44.2980865 35.5654142,43.8729521 C34.5214984,42.8008834 30.2926764,38.5104365 29.2642594,37.4197578 C28.9890492,37.1289487 28.8580346,36.7603686 28.8580346,36.3463133 C28.8580346,34.2196998 28.8515165,32.0912037 28.8611489,29.9632144 C28.8673773,29.0786944 29.5299096,28.4069226 30.3614066,28.4038089 C31.2021737,28.4006952 32.0387403,29.0852115 32.048083,29.9866761 C32.0543114,30.8850993 32.0285286,34.5057296 32.0472139,35.4147975 Z M12.8025612,25.1792031 C15.3529631,25.1805789 15.0030116,28.4219121 12.8025612,28.4219121 L9.60179419,28.4219121 C7.20138186,28.4219121 7.30147146,25.1792031 9.60179419,25.1792031 C15.9032387,25.1774652 10.3521041,25.1774652 12.8025612,25.1792031 Z" id="Combined-Shape"></path>
            </g>
        </g>
    </g>
</svg>