<?xml version="1.0" encoding="UTF-8"?>
<svg width="32px" height="32px" viewBox="0 0 32 32" version="1.1" xmlns="http://www.w3.org/2000/svg" xmlns:xlink="http://www.w3.org/1999/xlink">
    <!-- Generator: Sketch 49 (51002) - http://www.bohemiancoding.com/sketch -->
    <title>share</title>
    <desc>Created with Sketch.</desc>
    <defs></defs>
    <g id="Symbols" stroke="none" stroke-width="1" fill="none" fill-rule="evenodd">
        <g id="phone-item" transform="translate(-664.000000, -76.000000)">
            <g id="Group-2" transform="translate(640.000000, 52.000000)">
                <g id="Group-8" transform="translate(24.000000, 24.000000)">
                    <rect id="share" fill="#D8D8D8" opacity="0" x="0" y="0" width="32" height="32"></rect>
                    <path d="M31.7435692,12.9103435 L20.325131,0.411088916 C19.8682791,-0.0433812424 19.1831579,-0.0433812424 18.7264235,0.411088916 C18.2697283,0.865559074 18.2697283,1.09287211 18.2697283,1.54734227 L18.2697283,8.1379391 C8.90653611,8.1379391 0,15.8646724 0,25.182246 C0,27.6821048 1.1418164,30.8637467 2.28367197,32 C3.65391432,24.9550889 10.7334737,19.5007844 18.2697283,19.5007844 L18.2697283,26.3185384 C18.2697283,26.5458514 18.2697283,26.7731644 18.4979976,27.2276346 C18.9548494,27.6821048 19.8682791,27.4549476 20.096705,27.2276346 L31.5152999,14.9556931 C31.9719951,14.501067 31.9719951,14.0465968 31.9719951,13.8192838 C31.9719951,13.5921267 31.9719951,13.1376565 31.7435692,12.9103435 Z" id="分享" fill="#FFFFFF"></path>
                </g>
            </g>
        </g>
    </g>
</svg>