<?xml version="1.0" encoding="UTF-8"?>
<svg width="44px" height="44px" viewBox="0 0 44 44" version="1.1" xmlns="http://www.w3.org/2000/svg" xmlns:xlink="http://www.w3.org/1999/xlink">
    <!-- Generator: Sketch 49 (51002) - http://www.bohemiancoding.com/sketch -->
    <title>share-icon</title>
    <desc>Created with Sketch.</desc>
    <defs>
        <rect id="path-1" x="0" y="0" width="44" height="44"></rect>
    </defs>
    <g id="Page-1" stroke="none" stroke-width="1" fill="none" fill-rule="evenodd">
        <g id="8" transform="translate(-684.000000, -150.000000)">
            <g id="Group-8" transform="translate(684.000000, 150.000000)">
                <g id="share-icon" opacity="0">
                    <use fill="#D8D8D8" fill-rule="evenodd" xlink:href="#path-1"></use>
                    <rect stroke="#979797" stroke-width="1" x="0.5" y="0.5" width="43" height="43"></rect>
                </g>
                <path d="M33.9288424,11.0501628 L33.4393398,10.5606602 C32.8535534,9.97487373 32.8535534,9.02512627 33.4393398,8.43933983 C34.0251263,7.85355339 34.9748737,7.85355339 35.5606602,8.43933983 L38.5606602,11.4393398 C39.1464466,12.0251263 39.1464466,12.9748737 38.5606602,13.5606602 L35.5606602,16.5606602 C34.9748737,17.1464466 34.0251263,17.1464466 33.4393398,16.5606602 C32.8535534,15.9748737 32.8535534,15.0251263 33.4393398,14.4393398 L33.8083302,14.0703495 C27.006354,14.6927264 22.079619,19.451745 18.9181888,28.6277709 C18.6483366,29.411015 17.7946333,29.8272012 17.0113893,29.557349 C16.2281452,29.2874967 15.8119589,28.4337935 16.0818112,27.6505494 C19.6605007,17.2634314 25.6480538,11.6316753 33.9288424,11.0501628 Z M36,36 L36,22.5 C36,21.6715729 36.6715729,21 37.5,21 C38.3284271,21 39,21.6715729 39,22.5 L39,37.5 C39,38.3284271 38.3284271,39 37.5,39 L7.5,39 C6.67157288,39 6,38.3284271 6,37.5 L6,9.5 C6,8.67157288 6.67157288,8 7.5,8 L19.5,8 C20.3284271,8 21,8.67157288 21,9.5 C21,10.3284271 20.3284271,11 19.5,11 L9,11 L9,36 L36,36 Z" id="Combined-Shape" fill="#FFFFFF" fill-rule="nonzero"></path>
            </g>
        </g>
    </g>
</svg>