<?xml version="1.0" encoding="UTF-8"?>
<svg width="44px" height="44px" viewBox="0 0 44 44" version="1.1" xmlns="http://www.w3.org/2000/svg" xmlns:xlink="http://www.w3.org/1999/xlink">
    <!-- Generator: Sketch 49 (51002) - http://www.bohemiancoding.com/sketch -->
    <title>up</title>
    <desc>Created with Sketch.</desc>
    <defs></defs>
    <g id="Page-1" stroke="none" stroke-width="1" fill="none" fill-rule="evenodd">
        <g id="8" transform="translate(-22.000000, -150.000000)">
            <g id="Group-3" transform="translate(22.000000, 150.000000)">
                <rect id="up" stroke="#979797" opacity="0" x="0.5" y="0.5" width="43" height="43"></rect>
                <path d="M22.0001221,42 C11.000011,42 2,32.999989 2,22.0001221 C2,11.000011 11.000011,2 22.0001221,2 C32.999989,2 42,11.000011 42,22.0001221 C42,32.999989 32.999989,42 22.0001221,42 Z M22.0001221,5.33330485 C31.1666372,5.33330485 38.666744,12.8333628 38.666744,22.0001221 C38.666744,31.1666372 31.1666372,38.666744 22.0001221,38.666744 C12.8333628,38.666744 5.33330485,31.1666372 5.33330485,22.0001221 C5.33330485,12.8333628 12.8333628,5.33330485 22.0001221,5.33330485 Z M27.0000305,25.3333781 C27.4999335,25.3333781 27.8333323,25.1666787 28.16678,24.8332798 C28.8333824,24.1666774 28.8333824,23.1666274 28.16678,22.500025 L23.1666274,17.5000677 C22.500025,16.8332701 21.499975,16.8332701 20.8333726,17.5000677 L15.8334642,22.500025 C15.1666176,23.1666274 15.1666176,24.1666774 15.8334642,24.8332798 C16.5000665,25.5000775 17.5000677,25.5000775 18.166719,24.8332798 L22.0001221,21.000072 L25.833281,24.8332798 C26.1667287,25.1666787 26.5001276,25.3333781 27.0000305,25.3333781 Z" id="Combined-Shape" fill="#FFFFFF"></path>
            </g>
        </g>
    </g>
</svg>